<svg xmlns="http://www.w3.org/2000/svg" version="1.1" xmlns:xlink="http://www.w3.org/1999/xlink" xmlns:svgjs="http://svgjs.dev/svgjs" width="100%" height="100%" viewBox="0 0 1000 600"><rect width="1000" height="600" x="0" y="0" fill="#262223"/><g><rect width="333.3333333333333" height="333.3333333333333" rx="13.333333333333334" ry="13.333333333333334" y="110.80362977057044" fill="#ddc6b6" transform="matrix(1.4111311235718154,0,0,1.4111311235718151,0,-91.54699255119257)" x="88.5814208984375"/><path d="M211.959400764939 327.82743923265684Q221.39392428882906 327.82743923265684 230.1736859277804 323.95839173074614Q238.9534475667317 320.1191061326962 246.4534473396664 312.82743968678756L246.4534473396664 312.82743968678756L252.01892336164573 319.04767759370554Q225.67963844479175 352.47029562944226 191.60225852411625 352.47029562944226L191.60225852411625 352.47029562944226Q172.10821149525822 352.47029562944226 157.6439262188842 343.69053399049096Q143.17964094251013 334.91077235153966 135.23321261166265 318.83934426667963Q127.31654618467604 302.76791618181954 127.31654618467604 281.1012501711193L127.31654618467604 281.1012501711193Q127.31654618467604 262.47029835422603 134.48916501514134 245.0000607879059Q141.6617838456067 227.52982322158581 152.82249779342615 217.05363306256592L152.82249779342615 217.05363306256592Q163.74511651035883 209.97029994368316 176.2748780357775 206.2203000572158Q188.80463956119618 202.47030017074846 201.03678204800633 202.47030017074846L201.03678204800633 202.47030017074846Q217.31654345989233 202.47030017074846 230.9177335243017 209.43458567418782Q244.51892358871106 216.39887117762717 252.46535191955851 228.8393469914633L252.46535191955851 228.8393469914633L226.0963050988437 250.8929177523546Q214.96535305488504 231.1905373964706 199.31059162407692 208.24410951975375L199.31059162407692 208.24410951975375Q189.87606810018684 212.1131570216645 182.1677350002262 221.54768054555458Q174.45940190026553 230.98220406944463 170.05464012885943 244.04767986435866Q165.6796402613142 257.11315565927265 165.6796402613142 271.25005999317733L165.6796402613142 271.25005999317733Q165.6796402613142 298.2441067949701 177.7629732288201 313.03577301381347Q189.87606810018684 327.82743923265684 211.959400764939 327.82743923265684L211.959400764939 327.82743923265684ZM342.67368252180086 327.82743923265684Q352.1082060456909 327.82743923265684 360.88796768464215 323.95839173074614Q369.6677293235935 320.1191061326962 377.16772909652826 312.82743968678756L377.16772909652826 312.82743968678756L382.7332051185075 319.04767759370554Q356.39392020165354 352.47029562944226 322.3165402809781 352.47029562944226L322.3165402809781 352.47029562944226Q302.82249325212 352.47029562944226 288.358207975746 343.69053399049096Q273.89392269937196 334.91077235153966 265.9474943685244 318.83934426667963Q258.03082794153784 302.76791618181954 258.03082794153784 281.1012501711193L258.03082794153784 281.1012501711193Q258.03082794153784 262.47029835422603 265.2034467720032 245.0000607879059Q272.37606560246843 227.52982322158581 283.536779550288 217.05363306256592L283.536779550288 217.05363306256592Q294.45939826722065 209.97029994368316 306.98915979263927 206.2203000572158Q319.518921318058 202.47030017074846 331.7510638048682 202.47030017074846L331.7510638048682 202.47030017074846Q348.0308252167541 202.47030017074846 361.6320152811635 209.43458567418782Q375.23320534557286 216.39887117762717 383.1796336764203 228.8393469914633L383.1796336764203 228.8393469914633L356.81058685570554 250.8929177523546Q345.67963481174684 231.1905373964706 330.02487338093874 208.24410951975375L330.02487338093874 208.24410951975375Q320.59034985704864 212.1131570216645 312.88201675708797 221.54768054555458Q305.1736836571273 230.98220406944463 300.7689218857213 244.04767986435866Q296.393922018176 257.11315565927265 296.393922018176 271.25005999317733L296.393922018176 271.25005999317733Q296.393922018176 298.2441067949701 308.4772549856819 313.03577301381347Q320.59034985704864 327.82743923265684 342.67368252180086 327.82743923265684L342.67368252180086 327.82743923265684Z " fill="#262223" transform="matrix(1.4111311235718154,0,0,1.4111311235718151,0,-91.54699255119257)"/><path d="M615.9548933524923 265.4251529460746L595.9796591617568 265.4251529460746L589.807054604963 287.02926889485286L613.8973585002276 286.82923078421607L609.7822887956985 312.74845454816034L582.4056445114 312.74845454816034L570.889164713308 352.4703079460463L561.2301816568436 351.01288742569216L572.7466614549357 312.74845454816034L531.395926299007 312.74845454816034L519.450793406693 352.4703079460463L511.02061588699786 351.44154051991393L522.1370194638163 312.74845454816034L505.24808755147774 312.74845454816034L508.3343898298746 287.85799821034834L529.3383914467424 287.65796009971154L535.9110722248099 265.4251529460746L511.4206921082715 265.4251529460746L514.5069943866683 240.53469660826266L543.112444207736 240.3346584976258L554.0288096739175 202.47030184136761L563.8878308410187 203.69910737813677L553.0000422477852 240.13462038698896L594.5508155143508 239.70596729276718L605.6672190911693 202.47030184136761L613.8973585002276 203.49906926749992L603.4096461282678 239.70596729276718L620.0699630570215 239.50592918213033L615.9548933524923 265.4251529460746ZM580.3481096591355 287.2293070054897L586.7207523265661 265.4251529460746L545.3700171706373 265.4251529460746L538.7973363925698 287.65796009971154L580.3481096591355 287.2293070054897Z " fill="#ddc6b6" transform="matrix(1.4111311235718154,0,0,1.4111311235718151,0,-91.54699255119257)"/></g></svg>